<?xml version="1.0" encoding="UTF-8" standalone="no"?>
<!-- Created with Inkscape (http://www.inkscape.org/) -->

<svg
   xmlns:dc="http://purl.org/dc/elements/1.1/"
   xmlns:cc="http://creativecommons.org/ns#"
   xmlns:rdf="http://www.w3.org/1999/02/22-rdf-syntax-ns#"
   xmlns:svg="http://www.w3.org/2000/svg"
   xmlns="http://www.w3.org/2000/svg"
   xmlns:xlink="http://www.w3.org/1999/xlink"
   xmlns:sodipodi="http://sodipodi.sourceforge.net/DTD/sodipodi-0.dtd"
   xmlns:inkscape="http://www.inkscape.org/namespaces/inkscape"
   width="128"
   height="128"
   id="svg4212"
   version="1.1"
   inkscape:version="0.48.4 r9939"
   sodipodi:docname="New document 6">
  <defs
     id="defs4214">
    <linearGradient
       inkscape:collect="always"
       xlink:href="#gradient42"
       id="linearGradient3526"
       gradientUnits="userSpaceOnUse"
       gradientTransform="matrix(0,-0.09765625,0.09765625,0,100,240)"
       spreadMethod="pad"
       x1="-819.20001"
       x2="819.20001" />
    <linearGradient
       gradientUnits="userSpaceOnUse"
       x1="-819.20001"
       x2="819.20001"
       spreadMethod="pad"
       gradientTransform="matrix(0,-0.09765625,0.09765625,0,100,240)"
       id="gradient42">
      <stop
         offset="0"
         stop-color="#383838"
         id="stop217" />
      <stop
         offset="1"
         stop-color="#585858"
         id="stop219" />
    </linearGradient>
  </defs>
  <sodipodi:namedview
     id="base"
     pagecolor="#ffffff"
     bordercolor="#666666"
     borderopacity="1.0"
     inkscape:pageopacity="0.0"
     inkscape:pageshadow="2"
     inkscape:zoom="0.35"
     inkscape:cx="375"
     inkscape:cy="520"
     inkscape:document-units="px"
     inkscape:current-layer="layer1"
     showgrid="false"
     fit-margin-top="0"
     fit-margin-left="0"
     fit-margin-right="0"
     fit-margin-bottom="0"
     inkscape:showpageshadow="false"
     inkscape:window-width="1600"
     inkscape:window-height="838"
     inkscape:window-x="-8"
     inkscape:window-y="-8"
     inkscape:window-maximized="1" />
  <metadata
     id="metadata4217">
    <rdf:RDF>
      <cc:Work
         rdf:about="">
        <dc:format>image/svg+xml</dc:format>
        <dc:type
           rdf:resource="http://purl.org/dc/dcmitype/StillImage" />
        <dc:title></dc:title>
      </cc:Work>
    </rdf:RDF>
  </metadata>
  <g
     inkscape:label="Layer 1"
     inkscape:groupmode="layer"
     id="layer1"
     transform="translate(0,-924.36218)">
    <g
       id="g3705"
       transform="matrix(0.8,0,0,0.8,-16,796.36218)">
      <path
         d="M 153,186.95 Q 131.05,165 100,165 68.75,165 46.85,186.95 25,208.95 25,240 q 0,31.05 21.85,53 21.95,22 53.15,22 31,0 52.95,-22 L 153,292.95 Q 175,271 175,240 q 0,-31.05 -22,-53.05 m 3.5,-3.55 Q 180,206.9 180,240 180,273.1 156.5,296.5 133.1,320 100,320 66.7,320 43.3,296.5 20,273.1 20,240 20,206.9 43.3,183.4 66.7,160 100,160 q 33.1,0 56.5,23.4"
         id="path443"
         style="fill:url(#linearGradient3526);stroke:none"
         inkscape:connector-curvature="0" />
      <path
         d="m 153,186.95 q 22,22 22,53.05 0,31 -22,52.95 L 152.95,293 Q 131,315 100,315 68.8,315 46.85,293 25,271.05 25,240 25,208.95 46.85,186.95 68.75,165 100,165 q 31.05,0 53,21.95"
         id="path445"
         inkscape:connector-curvature="0"
         style="fill:#383838;stroke:none" />
      <path
         d="m 100,175.05 q 0.35,0 0.65,0.3 l 5.05,5.05 q 0.45,0.45 0.2,1.05 -0.25,0.6 -0.9,0.6 l -10.05,0 q -0.65,0 -0.9,-0.6 L 94,181.05 q -0.05,-0.35 0.25,-0.65 l 0.05,0 5,-5.05 q 0.3,-0.3 0.7,-0.3 m 59.5,61.5 q 0,-0.65 0.6,-0.9 0.6,-0.25 1.05,0.2 l 5.05,5.05 0.3,0.65 -0.3,0.7 -5.05,5 0,0.05 -0.65,0.25 -0.4,-0.05 q -0.6,-0.25 -0.6,-0.9 l 0,-10.05 m -119,0 0,10.05 q 0,0.65 -0.6,0.9 l -0.4,0.05 q -0.35,0.05 -0.65,-0.25 l 0,-0.05 -5.05,-5 q -0.3,-0.3 -0.3,-0.7 0,-0.35 0.3,-0.65 l 5.05,-5.05 q 0.45,-0.45 1.05,-0.2 0.6,0.25 0.6,0.9 m 65.4,65.1 q 0.25,0.6 -0.2,1.05 l -5.05,5.05 -0.65,0.3 -0.7,-0.3 -5,-5.05 -0.05,0 q -0.3,-0.3 -0.25,-0.65 l 0.05,-0.4 q 0.25,-0.6 0.9,-0.6 l 10.05,0 q 0.65,0 0.9,0.6"
         id="path447"
         inkscape:connector-curvature="0"
         style="fill:#ffffff;fill-opacity:0.05098039;stroke:none" />
    </g>
  </g>
</svg>
