<?xml version="1.0" encoding="UTF-8" standalone="no"?>
<!-- Created with Inkscape (http://www.inkscape.org/) -->

<svg
   xmlns:dc="http://purl.org/dc/elements/1.1/"
   xmlns:cc="http://creativecommons.org/ns#"
   xmlns:rdf="http://www.w3.org/1999/02/22-rdf-syntax-ns#"
   xmlns:svg="http://www.w3.org/2000/svg"
   xmlns="http://www.w3.org/2000/svg"
   xmlns:xlink="http://www.w3.org/1999/xlink"
   xmlns:sodipodi="http://sodipodi.sourceforge.net/DTD/sodipodi-0.dtd"
   xmlns:inkscape="http://www.inkscape.org/namespaces/inkscape"
   width="48"
   height="48"
   id="svg3418"
   version="1.1"
   inkscape:version="0.48.4 r9939"
   sodipodi:docname="New document 2">
  <defs
     id="defs3420">
    <linearGradient
       inkscape:collect="always"
       xlink:href="#gradient10"
       id="linearGradient3398"
       gradientUnits="userSpaceOnUse"
       gradientTransform="matrix(0,-0.02929688,0.02929688,0,284,424)"
       spreadMethod="pad"
       x1="-819.20001"
       x2="819.20001" />
    <linearGradient
       gradientUnits="userSpaceOnUse"
       x1="-819.20001"
       x2="819.20001"
       spreadMethod="pad"
       gradientTransform="matrix(0,-0.02929688,0.02929688,0,284,424)"
       id="gradient10">
      <stop
         offset="0"
         stop-color="#383838"
         id="stop57" />
      <stop
         offset="1"
         stop-color="#585858"
         id="stop59" />
    </linearGradient>
  </defs>
  <sodipodi:namedview
     id="base"
     pagecolor="#ffffff"
     bordercolor="#666666"
     borderopacity="1.0"
     inkscape:pageopacity="0.0"
     inkscape:pageshadow="2"
     inkscape:zoom="0.35"
     inkscape:cx="375"
     inkscape:cy="520"
     inkscape:document-units="px"
     inkscape:current-layer="layer1"
     showgrid="false"
     inkscape:showpageshadow="false"
     fit-margin-top="0"
     fit-margin-left="0"
     fit-margin-right="0"
     fit-margin-bottom="0"
     inkscape:window-width="1600"
     inkscape:window-height="838"
     inkscape:window-x="-8"
     inkscape:window-y="-8"
     inkscape:window-maximized="1" />
  <metadata
     id="metadata3423">
    <rdf:RDF>
      <cc:Work
         rdf:about="">
        <dc:format>image/svg+xml</dc:format>
        <dc:type
           rdf:resource="http://purl.org/dc/dcmitype/StillImage" />
        <dc:title></dc:title>
      </cc:Work>
    </rdf:RDF>
  </metadata>
  <g
     inkscape:label="Layer 1"
     inkscape:groupmode="layer"
     id="layer1"
     transform="translate(0,-1004.3622)">
    <g
       id="g3393"
       transform="matrix(-1,0,0,1,308,604.36218)">
      <path
         d="m 305,405.2 0,37.85 q -0.1,1.95 -2.15,1.95 l -37.65,0 q -2.1,0 -2.2,-1.95 l 0,-37.85 q 0,-2.2 2.2,-2.2 l 37.65,0 q 2.15,0 2.15,2.2"
         id="path313"
         inkscape:connector-curvature="0"
         style="fill:#383838;stroke:none" />
      <path
         d="m 305,405.2 q 0,-2.2 -2.15,-2.2 l -37.65,0 q -2.2,0 -2.2,2.2 l 0,37.85 q 0.1,1.95 2.2,1.95 l 37.65,0 q 2.05,0 2.15,-1.95 l 0,-37.85 m 3,0 0,37.85 q -0.1,4.95 -5.15,4.95 l -37.65,0 q -5.1,0 -5.2,-4.95 l 0,-37.85 q 0,-5.2 5.2,-5.2 l 37.65,0 q 5.15,0 5.15,5.2"
         id="path315"
         style="fill:url(#linearGradient3398);stroke:none"
         inkscape:connector-curvature="0" />
      <path
         inkscape:connector-curvature="0"
         style="fill:#ffffff;stroke:none"
         d="m 284.85,415.25 0.65,0.1 11.05,9.15 0.2,0.5 -0.2,0.45 -0.05,0 -11.15,8.45 q -0.3,0.2 -0.7,0 -0.35,-0.2 -0.3,-0.6 l 0.5,-4.25 q -8.45,0.2 -13.7,3.4 1.85,-9.85 13.8,-12.3 l -0.45,-4.3 q 0,-0.35 0.35,-0.6"
         id="path3834" />
    </g>
  </g>
</svg>
