<?xml version="1.0" encoding="UTF-8" standalone="no"?>
<!-- Generator: Adobe Illustrator 17.0.0, SVG Export Plug-In . SVG Version: 6.00 Build 0)  -->

<svg
   xmlns:dc="http://purl.org/dc/elements/1.1/"
   xmlns:cc="http://creativecommons.org/ns#"
   xmlns:rdf="http://www.w3.org/1999/02/22-rdf-syntax-ns#"
   xmlns:svg="http://www.w3.org/2000/svg"
   xmlns="http://www.w3.org/2000/svg"
   xmlns:xlink="http://www.w3.org/1999/xlink"
   xmlns:sodipodi="http://sodipodi.sourceforge.net/DTD/sodipodi-0.dtd"
   xmlns:inkscape="http://www.inkscape.org/namespaces/inkscape"
   sodipodi:docname="IPhoneTilted.svg"
   inkscape:version="0.48.4 r9939"
   xml:space="preserve"
   enable-background="new 0 0 64 64"
   viewBox="0 0 216 96"
   height="96"
   width="216"
   y="0px"
   x="0px"
   id="Capa_1"
   version="1.1"><sodipodi:namedview
   pagecolor="#ffffff"
   bordercolor="#666666"
   borderopacity="1"
   objecttolerance="10"
   gridtolerance="10"
   guidetolerance="10"
   inkscape:pageopacity="0"
   inkscape:pageshadow="2"
   inkscape:window-width="1600"
   inkscape:window-height="838"
   id="namedview5"
   showgrid="false"
   inkscape:zoom="1.3037281"
   inkscape:cx="173.59045"
   inkscape:cy="65.091359"
   inkscape:window-x="-8"
   inkscape:window-y="-8"
   inkscape:window-maximized="1"
   inkscape:current-layer="Capa_1"
   inkscape:showpageshadow="false"
   fit-margin-top="0"
   fit-margin-left="0"
   fit-margin-right="0"
   fit-margin-bottom="0"
   showborder="true"><inkscape:grid
     snapvisiblegridlinesonly="true"
     enabled="true"
     visible="true"
     empspacing="4"
     id="grid3002"
     type="xygrid"
     originx="-1.9109992e-009px"
     originy="6.8212103e-013px" /></sodipodi:namedview><metadata
   id="metadata9"><rdf:RDF><cc:Work
       rdf:about=""><dc:format>image/svg+xml</dc:format><dc:type
         rdf:resource="http://purl.org/dc/dcmitype/StillImage" /><dc:title /></cc:Work></rdf:RDF></metadata><defs
   id="defs7"><linearGradient
     inkscape:collect="always"
     xlink:href="#gradient34"
     id="linearGradient3559"
     gradientUnits="userSpaceOnUse"
     gradientTransform="matrix(0,-0.02935791,0.02929688,0,74,574)"
     spreadMethod="pad"
     x1="-819.20001"
     x2="819.20001" /><linearGradient
     gradientUnits="userSpaceOnUse"
     x1="-819.20001"
     x2="819.20001"
     spreadMethod="pad"
     gradientTransform="matrix(0,-0.02935791,0.02929688,0,74,574)"
     id="gradient34"><stop
       offset="0"
       stop-color="#383838"
       id="stop177" /><stop
       offset="1"
       stop-color="#585858"
       id="stop179" /></linearGradient></defs>

<g
   transform="matrix(2,0,0,2,-40,-1100)"
   id="g4577"><path
     d="m 23,555.2 0,37.85 q 0.1,1.95 2.2,1.95 l 97.65,0 q 2.1,0 2.15,-2 l 0,-37.8 q 0,-2.2 -2.15,-2.2 l -97.65,0 q -2.2,0 -2.2,2.2 m -3,37.85 0,-37.85 q 0,-5.2 5.2,-5.2 l 97.65,0 q 5.15,0 5.15,5.2 l 0,37.85 q -0.1,4.95 -5.15,4.95 l -97.65,0 q -5.1,0 -5.2,-4.95"
     id="path409"
     style="fill:url(#linearGradient3559);stroke:none"
     inkscape:connector-curvature="0" /><path
     d="m 23,555.2 q 0,-2.2 2.2,-2.2 l 97.65,0 q 2.15,0 2.15,2.2 l 0,37.8 q -0.05,2 -2.15,2 l -97.65,0 q -2.1,0 -2.2,-1.95 l 0,-37.85"
     id="path411"
     inkscape:connector-curvature="0"
     style="fill:#383838;stroke:none" /></g><path
   inkscape:connector-curvature="0"
   d="m 55.53642,31.217544 c 0,0 -10.890538,28.89912 -10.890538,28.89912 C 42.252559,66.467568 46.707898,72 54.746958,72 c 0,0 106.508512,0 106.508512,0 8.03454,0 12.49213,-5.532432 10.09882,-11.883336 0,0 -10.89054,-28.89912 -10.89054,-28.89912 C 158.92856,27.143736 152.94603,24 147.05402,24 c 0,0 -78.10623,0 -78.10623,0 -5.895296,0 -11.876181,3.143736 -13.41137,7.217544 0,0 0,0 0,0 m 92.19824,-4.917024 c 3.99759,0 8.00745,2.161272 8.97116,4.915848 0,0 10.11095,28.900296 10.11095,28.900296 1.46891,4.198608 -1.54193,7.772856 -6.77745,7.772856 0,0 -104.076276,0 -104.076276,0 0,0 5.54e-4,-0.0018 5.54e-4,-0.0018 -5.237674,0 -8.246314,-3.574176 -6.777492,-7.772712 0,0 10.109993,-28.898592 10.109993,-28.898592 0.963285,-2.753448 4.971819,-4.915848 8.971072,-4.915848 0,0 79.467489,0 79.467489,0 0,0 0,0 0,0 m -80.423436,2.45328 c 0,0 -10.442879,35.098128 -10.442879,35.098128 -0.15808,0.531552 0.23424,0.963504 0.878869,0.963504 0,0 90.623586,0 90.623586,0 0.64246,0 1.06389,-0.431952 0.93612,-0.963504 0,0 -8.43628,-35.098128 -8.43628,-35.098128 -0.0804,-0.334752 -0.55757,-0.60516 -1.06543,-0.60516 0,0 -71.395682,0 -71.395682,0 -0.507861,0 -0.998698,0.270408 -1.098304,0.60516 0,0 0,0 0,0 m 71.849566,0.609432 c 0,0 7.60757,33.535872 7.60757,33.535872 0,0 -87.311279,0 -87.311279,0 0,0 9.525696,-33.535872 9.525696,-33.535872 0,0 70.178013,0 70.178013,0 0,0 0,0 0,0 m 7.1603,14.943744 c 0.64939,2.581056 4.09995,4.747296 7.67217,4.747296 3.57222,0 5.75403,-2.16624 4.89171,-4.747296 -0.83405,-2.496432 -4.22903,-4.466088 -7.58984,-4.466088 -3.36267,0 -5.60215,1.969656 -4.97404,4.466088 0,0 0,0 0,0 m 10.50753,0 c 0.55389,1.72776 -0.92148,3.16152 -3.29974,3.16152 -2.37829,0 -4.69534,-1.43376 -5.15335,-3.16152 -0.44748,-1.688064 1.05545,-3.034152 3.33894,-3.034152 2.28349,0 4.57296,1.346088 5.11415,3.034152 0,0 0,0 0,0 m -99.851688,5.1492 c -0.433089,0 -0.677867,-0.319896 -0.548608,-0.712728 0,0 2.83857,-8.627376 2.83857,-8.627376 0.114774,-0.34908 0.534997,-0.62952 0.940672,-0.62952 0.405654,0 0.644032,0.28044 0.532651,0.62952 0,0 -2.752768,8.627376 -2.752768,8.627376 -0.1248,0.391344 -0.576938,0.711216 -1.010517,0.712728 0,0 0,0 0,0"
   id="path3-1" /></svg>