<?xml version="1.0" encoding="UTF-8" standalone="no"?>
<!-- Created with Inkscape (http://www.inkscape.org/) -->

<svg
   xmlns:dc="http://purl.org/dc/elements/1.1/"
   xmlns:cc="http://creativecommons.org/ns#"
   xmlns:rdf="http://www.w3.org/1999/02/22-rdf-syntax-ns#"
   xmlns:svg="http://www.w3.org/2000/svg"
   xmlns="http://www.w3.org/2000/svg"
   xmlns:sodipodi="http://sodipodi.sourceforge.net/DTD/sodipodi-0.dtd"
   xmlns:inkscape="http://www.inkscape.org/namespaces/inkscape"
   width="206.13377"
   height="59.999985"
   id="svg4505"
   version="1.1"
   inkscape:version="0.48.4 r9939"
   sodipodi:docname="Limbs.svg">
  <defs
     id="defs4507" />
  <sodipodi:namedview
     id="base"
     pagecolor="#ffffff"
     bordercolor="#666666"
     borderopacity="1.0"
     inkscape:pageopacity="0.0"
     inkscape:pageshadow="2"
     inkscape:zoom="0.35"
     inkscape:cx="375"
     inkscape:cy="520.00013"
     inkscape:document-units="px"
     inkscape:current-layer="layer1"
     showgrid="false"
     inkscape:showpageshadow="false"
     fit-margin-top="0"
     fit-margin-left="0"
     fit-margin-right="0"
     fit-margin-bottom="0"
     inkscape:window-width="1600"
     inkscape:window-height="838"
     inkscape:window-x="-8"
     inkscape:window-y="-8"
     inkscape:window-maximized="1" />
  <metadata
     id="metadata4510">
    <rdf:RDF>
      <cc:Work
         rdf:about="">
        <dc:format>image/svg+xml</dc:format>
        <dc:type
           rdf:resource="http://purl.org/dc/dcmitype/StillImage" />
        <dc:title></dc:title>
      </cc:Work>
    </rdf:RDF>
  </metadata>
  <g
     inkscape:label="Layer 1"
     inkscape:groupmode="layer"
     id="layer1"
     transform="translate(0,-992.36235)">
    <path
       style="fill:#09432a;fill-opacity:1;stroke:none"
       d="m 5.6290573,1031.5037 c -1.1840185,0.7968 -2.2469227,1.837 -2.9383131,3.0042 l -2.11343014,3.5503 c -1.99872766,3.3744 1.71628974,7.3081 3.20107094,8.2218 l 5.9071676,3.674 c 4.2811674,2.076 10.2739524,0.8979 15.0369274,0.022 l 9.144747,-3.8784 c 6.432744,-4.1332 11.911704,-7.2017 30.483089,-24.329 4.462272,-4.1154 9.561668,-8.5462 15.141071,-11.7057 6.323321,-3.5806 13.331377,-5.5387 20.866853,-3.4055 l 5.49589,0.047 0.0548,-0.032 c 14.16534,-3.7677 26.36943,6.7735 35.86193,15.6763 18.54434,17.3924 24.07832,20.5156 30.50453,24.7406 l 9.09907,4.0246 c 4.76158,0.9427 10.76084,2.1792 15.04524,0.1638 l 5.96271,-3.5782 c 1.48612,-0.8926 5.16639,-4.7685 3.1729,-8.1713 l -2.13592,-3.5839 c -2.45176,-4.1852 -9.05379,-6.2013 -11.85277,-4.6273 l -2.77051,1.5218 c -0.74534,0.4197 -1.23352,1.6945 -0.60284,2.7538 l 1.66293,2.762 c 0.41741,0.7051 0.96744,1.6189 2.15111,0.9499 l 3.61546,-2.0813 1.16667,2.0269 c -0.14745,1.2562 -0.14543,2.5191 -1.55572,3.8856 l -4.43715,2.5542 c -3.77939,-0.1699 -7.70104,-0.7193 -12.04222,-2.5491 -13.67397,-10.2895 -26.38669,-25.4132 -38.74296,-36.7724 -6.00003,-5.5159 -22.42661,-19.14303 -34.06967,-11.67594 l -5.63697,-0.0364 c -11.631208,-7.63315 -28.16139,5.77884 -34.170012,11.20914 -12.373851,11.1826 -25.042458,26.1305 -38.732324,36.2246 -4.343989,1.768 -8.28637,2.2348 -12.065989,2.3509 l -4.429971,-2.6282 c -1.4083673,-1.3865 -1.3561838,-2.6177 -1.5017919,-3.8759 l 1.0990489,-2.0184 3.605068,2.0819 c 1.182562,0.686 1.764306,-0.1942 2.184525,-0.8928 l 1.676788,-2.7884 c 0.63233,-1.0503 0.164236,-2.2261 -0.580713,-2.6559 l -2.84321,-1.6454 c -1.747802,-1.0087 -4.9297796,-0.646 -7.7119265,0.7927 -0.4173261,0.2158 -0.810482,0.4282 -1.2051548,0.6937 z"
       id="path3874"
       inkscape:connector-curvature="0"
       inkscape:export-filename="C:\Users\Jason\Pictures\Sean's pictures\LoneArcher\Animations\Entity\Limbs.png"
       inkscape:export-xdpi="89.999969"
       inkscape:export-ydpi="89.999969" />
  </g>
</svg>
