<?xml version="1.0" encoding="UTF-8" standalone="no"?>
<!-- Created with Inkscape (http://www.inkscape.org/) -->

<svg
   xmlns:dc="http://purl.org/dc/elements/1.1/"
   xmlns:cc="http://creativecommons.org/ns#"
   xmlns:rdf="http://www.w3.org/1999/02/22-rdf-syntax-ns#"
   xmlns:svg="http://www.w3.org/2000/svg"
   xmlns="http://www.w3.org/2000/svg"
   xmlns:xlink="http://www.w3.org/1999/xlink"
   xmlns:sodipodi="http://sodipodi.sourceforge.net/DTD/sodipodi-0.dtd"
   xmlns:inkscape="http://www.inkscape.org/namespaces/inkscape"
   width="64"
   height="64"
   id="svg3401"
   version="1.1"
   inkscape:version="0.48.4 r9939"
   sodipodi:docname="MusicButton.svg">
  <defs
     id="defs3403">
    <linearGradient
       inkscape:collect="always"
       xlink:href="#gradient8"
       id="linearGradient3662"
       gradientUnits="userSpaceOnUse"
       gradientTransform="matrix(0,-0.02929688,0.02929688,0,164,424)"
       spreadMethod="pad"
       x1="-819.20001"
       x2="819.20001" />
    <linearGradient
       gradientUnits="userSpaceOnUse"
       x1="-819.20001"
       x2="819.20001"
       spreadMethod="pad"
       gradientTransform="matrix(0,-0.02929688,0.02929688,0,164,424)"
       id="gradient8">
      <stop
         offset="0"
         stop-color="#383838"
         id="stop47" />
      <stop
         offset="1"
         stop-color="#585858"
         id="stop49" />
    </linearGradient>
  </defs>
  <sodipodi:namedview
     id="base"
     pagecolor="#ffffff"
     bordercolor="#666666"
     borderopacity="1.0"
     inkscape:pageopacity="0.0"
     inkscape:pageshadow="2"
     inkscape:zoom="0.35"
     inkscape:cx="375.00001"
     inkscape:cy="519.99997"
     inkscape:document-units="px"
     inkscape:current-layer="layer1"
     showgrid="false"
     inkscape:showpageshadow="false"
     fit-margin-top="0"
     fit-margin-left="0"
     fit-margin-right="0"
     fit-margin-bottom="0"
     inkscape:window-width="1600"
     inkscape:window-height="838"
     inkscape:window-x="-8"
     inkscape:window-y="-8"
     inkscape:window-maximized="1" />
  <metadata
     id="metadata3406">
    <rdf:RDF>
      <cc:Work
         rdf:about="">
        <dc:format>image/svg+xml</dc:format>
        <dc:type
           rdf:resource="http://purl.org/dc/dcmitype/StillImage" />
        <dc:title />
      </cc:Work>
    </rdf:RDF>
  </metadata>
  <g
     inkscape:label="Layer 1"
     inkscape:groupmode="layer"
     id="layer1"
     transform="translate(8e-6,-988.36217)">
    <g
       transform="matrix(1.3333333,0,0,1.3333333,-186.66667,455.02885)"
       id="g3391">
      <path
         d="m 185,405.2 0,37.85 q -0.1,1.95 -2.15,1.95 l -37.65,0 q -2.1,0 -2.2,-1.95 l 0,-37.85 q 0,-2.2 2.2,-2.2 l 37.65,0 q 2.15,0 2.15,2.2"
         id="path305"
         inkscape:connector-curvature="0"
         style="fill:#383838;stroke:none" />
      <path
         d="m 185,405.2 q 0,-2.2 -2.15,-2.2 l -37.65,0 q -2.2,0 -2.2,2.2 l 0,37.85 q 0.1,1.95 2.2,1.95 l 37.65,0 q 2.05,0 2.15,-1.95 l 0,-37.85 m 3,0 0,37.85 q -0.1,4.95 -5.15,4.95 l -37.65,0 q -5.1,0 -5.2,-4.95 l 0,-37.85 q 0,-5.2 5.2,-5.2 l 37.65,0 q 5.15,0 5.15,5.2"
         id="path307"
         style="fill:url(#linearGradient3662);stroke:none"
         inkscape:connector-curvature="0" />
      <path
         inkscape:connector-curvature="0"
         style="fill:#ffffff;stroke:none"
         d="m 162.55,419.75 0,11.25 q 0,2.05 -1.5,3.4 l -0.05,0.1 q -1.25,1.25 -2.9,1.45 l -0.05,0 q -1.85,0.15 -3,-1.05 -1.2,-1.15 -1,-3 0.15,-1.75 1.4,-3.05 l 0.05,-0.05 q 1.15,-1.15 2.55,-1.4 l 0.05,0 1.25,-0.05 0,-11.3 q 0,-2.05 2.05,-2.05 l 9.55,0 q 2.1,0 2.1,2.05 l 0,10.85 0,0.1 q -0.2,1.95 -1.4,3.2 l -0.05,0 q -1.3,1.4 -3,1.55 l -0.05,0 q -1.8,0.15 -3,-1.1 -1.15,-1.15 -1,-3.05 0.2,-1.7 1.45,-3 1.15,-1.2 2.6,-1.4 l -0.05,0 1.25,-0.1 0,-3.35 -7.25,0"
         id="path3824" />
    </g>
  </g>
</svg>
