<?xml version="1.0" encoding="UTF-8" standalone="no"?>
<!-- Created with Inkscape (http://www.inkscape.org/) -->

<svg
   xmlns:dc="http://purl.org/dc/elements/1.1/"
   xmlns:cc="http://creativecommons.org/ns#"
   xmlns:rdf="http://www.w3.org/1999/02/22-rdf-syntax-ns#"
   xmlns:svg="http://www.w3.org/2000/svg"
   xmlns="http://www.w3.org/2000/svg"
   xmlns:xlink="http://www.w3.org/1999/xlink"
   xmlns:sodipodi="http://sodipodi.sourceforge.net/DTD/sodipodi-0.dtd"
   xmlns:inkscape="http://www.inkscape.org/namespaces/inkscape"
   width="64"
   height="64"
   id="svg4457"
   version="1.1"
   inkscape:version="0.48.4 r9939"
   sodipodi:docname="MuteButton.svg">
  <defs
     id="defs4459">
    <linearGradient
       inkscape:collect="always"
       xlink:href="#gradient7"
       id="linearGradient3667"
       gradientUnits="userSpaceOnUse"
       gradientTransform="matrix(0,-0.02929688,0.02929688,0,104,424)"
       spreadMethod="pad"
       x1="-819.20001"
       x2="819.20001" />
    <linearGradient
       gradientUnits="userSpaceOnUse"
       x1="-819.20001"
       x2="819.20001"
       spreadMethod="pad"
       gradientTransform="matrix(0,-0.02929688,0.02929688,0,104,424)"
       id="gradient7">
      <stop
         offset="0"
         stop-color="#383838"
         id="stop42" />
      <stop
         offset="1"
         stop-color="#585858"
         id="stop44" />
    </linearGradient>
  </defs>
  <sodipodi:namedview
     id="base"
     pagecolor="#ffffff"
     bordercolor="#666666"
     borderopacity="1.0"
     inkscape:pageopacity="0.0"
     inkscape:pageshadow="2"
     inkscape:zoom="0.35"
     inkscape:cx="375.00001"
     inkscape:cy="519.99997"
     inkscape:document-units="px"
     inkscape:current-layer="layer1"
     showgrid="false"
     fit-margin-top="0"
     fit-margin-left="0"
     fit-margin-right="0"
     fit-margin-bottom="0"
     inkscape:showpageshadow="false"
     inkscape:window-width="1600"
     inkscape:window-height="838"
     inkscape:window-x="-8"
     inkscape:window-y="-8"
     inkscape:window-maximized="1" />
  <metadata
     id="metadata4462">
    <rdf:RDF>
      <cc:Work
         rdf:about="">
        <dc:format>image/svg+xml</dc:format>
        <dc:type
           rdf:resource="http://purl.org/dc/dcmitype/StillImage" />
        <dc:title />
      </cc:Work>
    </rdf:RDF>
  </metadata>
  <g
     inkscape:label="Layer 1"
     inkscape:groupmode="layer"
     id="layer1"
     transform="translate(6e-6,-988.36217)">
    <g
       transform="matrix(1.3333333,0,0,1.3333333,-106.66667,455.02885)"
       id="g4074">
      <path
         d="m 125,405.2 q 0,-2.2 -2.15,-2.2 l -37.65,0 q -2.2,0 -2.2,2.2 l 0,37.85 q 0.1,1.95 2.2,1.95 l 37.65,0 q 2.05,0 2.15,-1.95 l 0,-37.85 m 3,0 0,37.85 q -0.1,4.95 -5.15,4.95 l -37.65,0 q -5.1,0 -5.2,-4.95 l 0,-37.85 q 0,-5.2 5.2,-5.2 l 37.65,0 q 5.15,0 5.15,5.2"
         id="path301"
         style="fill:url(#linearGradient3667);stroke:none"
         inkscape:connector-curvature="0" />
      <path
         d="m 125,405.2 0,37.85 q -0.1,1.95 -2.15,1.95 l -37.65,0 q -2.1,0 -2.2,-1.95 l 0,-37.85 q 0,-2.2 2.2,-2.2 l 37.65,0 q 2.15,0 2.15,2.2"
         id="path303"
         inkscape:connector-curvature="0"
         style="fill:#383838;stroke:none" />
      <path
         inkscape:connector-curvature="0"
         style="fill:#ffffff;stroke:none"
         d="m 106.35,413 1.4,0 0,8.95 0.3,0.25 q 0.95,0.95 0.95,2.3 0,1.3 -0.95,2.2 l -0.3,0.35 0,8.95 -1.4,0 -9.55,-8.8 q -0.7,0.5 -1.65,0.5 -1.3,0 -2.25,-1 -0.9,-0.9 -0.9,-2.2 0,-1.35 0.9,-2.3 0.95,-0.9 2.25,-0.9 0.95,0 1.7,0.45 l 9.5,-8.75"
         id="path3812" />
    </g>
  </g>
</svg>
