<?xml version="1.0" encoding="UTF-8" standalone="no"?>
<!-- Created with Inkscape (http://www.inkscape.org/) -->

<svg
   xmlns:dc="http://purl.org/dc/elements/1.1/"
   xmlns:cc="http://creativecommons.org/ns#"
   xmlns:rdf="http://www.w3.org/1999/02/22-rdf-syntax-ns#"
   xmlns:svg="http://www.w3.org/2000/svg"
   xmlns="http://www.w3.org/2000/svg"
   xmlns:xlink="http://www.w3.org/1999/xlink"
   xmlns:sodipodi="http://sodipodi.sourceforge.net/DTD/sodipodi-0.dtd"
   xmlns:inkscape="http://www.inkscape.org/namespaces/inkscape"
   width="58.583607"
   height="48"
   id="svg5080"
   version="1.1"
   inkscape:version="0.48.4 r9939"
   sodipodi:docname="New document 29">
  <defs
     id="defs5082">
    <linearGradient
       inkscape:collect="always"
       xlink:href="#gradient39"
       id="linearGradient3535"
       gradientUnits="userSpaceOnUse"
       gradientTransform="matrix(0,-0.0378418,0.03723145,0,692.7,200.5)"
       spreadMethod="pad"
       x1="-819.20001"
       x2="819.20001" />
    <linearGradient
       gradientUnits="userSpaceOnUse"
       x1="-819.20001"
       x2="819.20001"
       spreadMethod="pad"
       gradientTransform="matrix(0,-0.0378418,0.03723145,0,692.7,200.5)"
       id="gradient39">
      <stop
         offset="0"
         stop-color="#383838"
         id="stop202" />
      <stop
         offset="1"
         stop-color="#585858"
         id="stop204" />
    </linearGradient>
    <linearGradient
       x2="819.20001"
       x1="-819.20001"
       spreadMethod="pad"
       gradientTransform="matrix(0,-0.0378418,0.03723145,0,692.7,200.5)"
       gradientUnits="userSpaceOnUse"
       id="linearGradient5078"
       xlink:href="#gradient39"
       inkscape:collect="always" />
  </defs>
  <sodipodi:namedview
     id="base"
     pagecolor="#ffffff"
     bordercolor="#666666"
     borderopacity="1.0"
     inkscape:pageopacity="0.0"
     inkscape:pageshadow="2"
     inkscape:zoom="0.98994949"
     inkscape:cx="375"
     inkscape:cy="62.857158"
     inkscape:document-units="px"
     inkscape:current-layer="layer1"
     showgrid="false"
     inkscape:showpageshadow="false"
     fit-margin-top="0"
     fit-margin-left="0"
     fit-margin-right="0"
     fit-margin-bottom="0"
     inkscape:window-width="1600"
     inkscape:window-height="838"
     inkscape:window-x="-8"
     inkscape:window-y="-8"
     inkscape:window-maximized="1" />
  <metadata
     id="metadata5085">
    <rdf:RDF>
      <cc:Work
         rdf:about="">
        <dc:format>image/svg+xml</dc:format>
        <dc:type
           rdf:resource="http://purl.org/dc/dcmitype/StillImage" />
        <dc:title></dc:title>
      </cc:Work>
    </rdf:RDF>
  </metadata>
  <g
     inkscape:label="Layer 1"
     inkscape:groupmode="layer"
     id="layer1"
     transform="translate(-1.375e-6,-1004.3622)">
    <g
       transform="matrix(0.78688525,0,0,0.78688525,-515.80328,870.59169)"
       id="g5041">
      <path
         inkscape:connector-curvature="0"
         id="path4992"
         d="m 709.65,195.3 q -0.45,-0.45 -1.05,-0.2 -0.6,0.25 -0.6,0.9 l 0,10.05 q 0,0.65 0.6,0.9 l 0.4,0.05 0.65,-0.25 0,-0.05 5.05,-5 0.3,-0.7 -0.3,-0.65 -5.05,-5.05"
         style="fill:#383838;stroke:none" />
      <path
         inkscape:connector-curvature="0"
         id="path4990"
         d="m 725.95,175 0,51 q 0,1 -1,1 l -37.3,0 -26.5,-26.5 26.5,-26.5 37.3,0 q 1,0 1,1"
         style="fill:#383838;stroke:none" />
      <path
         inkscape:connector-curvature="0"
         id="path5022"
         d="m 709.65,195.3 5.05,5.05 0.3,0.65 -0.3,0.7 -5.05,5 0,0.05 -0.65,0.25 -0.4,-0.05 Q 708,206.7 708,206.05 L 708,196 q 0,-0.65 0.6,-0.9 0.6,-0.25 1.05,0.2"
         style="fill:#666666;stroke:none" />
      <path
         d="m 725.95,175 q 0,-1 -1,-1 l -37.3,0 -26.5,26.5 26.5,26.5 37.3,0 q 1,0 1,-1 l 0,-51 m -39.95,-5 38.95,0 q 5,0 5,5 l 0,51 q 0,5 -5,5 L 686,231 655.5,200.5 686,170"
         id="path437"
         style="fill:url(#linearGradient5078);stroke:none"
         inkscape:connector-curvature="0" />
    </g>
  </g>
</svg>
