<?xml version="1.0" encoding="UTF-8" standalone="no"?>
<!-- Created with Inkscape (http://www.inkscape.org/) -->

<svg
   xmlns:dc="http://purl.org/dc/elements/1.1/"
   xmlns:cc="http://creativecommons.org/ns#"
   xmlns:rdf="http://www.w3.org/1999/02/22-rdf-syntax-ns#"
   xmlns:svg="http://www.w3.org/2000/svg"
   xmlns="http://www.w3.org/2000/svg"
   xmlns:sodipodi="http://sodipodi.sourceforge.net/DTD/sodipodi-0.dtd"
   xmlns:inkscape="http://www.inkscape.org/namespaces/inkscape"
   width="50"
   height="49.997002"
   id="svg2"
   version="1.1"
   inkscape:version="0.48.4 r9939"
   sodipodi:docname="New document 1">
  <defs
     id="defs4" />
  <sodipodi:namedview
     id="base"
     pagecolor="#ffffff"
     bordercolor="#666666"
     borderopacity="1.0"
     inkscape:pageopacity="0.0"
     inkscape:pageshadow="2"
     inkscape:zoom="13.019984"
     inkscape:cx="25"
     inkscape:cy="24.998002"
     inkscape:document-units="px"
     inkscape:current-layer="layer1"
     showgrid="false"
     showborder="true"
     inkscape:showpageshadow="false"
     fit-margin-top="0"
     fit-margin-left="0"
     fit-margin-right="0"
     fit-margin-bottom="0"
     inkscape:window-width="1600"
     inkscape:window-height="838"
     inkscape:window-x="-8"
     inkscape:window-y="-8"
     inkscape:window-maximized="1" />
  <metadata
     id="metadata7">
    <rdf:RDF>
      <cc:Work
         rdf:about="">
        <dc:format>image/svg+xml</dc:format>
        <dc:type
           rdf:resource="http://purl.org/dc/dcmitype/StillImage" />
        <dc:title></dc:title>
      </cc:Work>
    </rdf:RDF>
  </metadata>
  <g
     inkscape:label="Layer 1"
     inkscape:groupmode="layer"
     id="layer1"
     transform="translate(0,-1002.3632)">
    <g
       id="g2996"
       transform="matrix(1,0,0,0.99994,0,1002.3632)">
      <rect
         id="rect2986"
         width="50"
         height="50"
         x="0"
         y="0"
         style="fill:none" />
      <path
         id="path2988"
         stroke-miterlimit="10"
         d="m 49,27.954 v -6 L 41.859,20.787 C 41.436,19.096 40.772,17.506 39.897,16.05 l 4.162,-5.932 -4.243,-4.241 -5.856,4.21 C 32.5,9.203 30.9,8.529 29.197,8.105 L 27.952,0.999 h -6 L 20.796,8.082 C 19.092,8.5 17.483,9.165 16.019,10.045 L 10.18,5.873 5.937,10.114 10.044,15.988 C 9.156,17.458 8.481,19.065 8.052,20.78 L 1,21.954 v 6 l 7.044,1.249 c 0.425,1.711 1.101,3.318 1.992,4.79 l -4.163,5.823 4.241,4.245 5.881,-4.119 c 1.468,0.882 3.073,1.552 4.777,1.973 l 1.18,7.087 h 6 l 1.261,-7.105 c 1.695,-0.43 3.297,-1.105 4.751,-1.99 l 5.922,4.155 4.242,-4.245 -4.227,-5.87 c 0.875,-1.456 1.539,-3.048 1.958,-4.739 L 49,27.954 z M 25,33 c -4.418,0 -8,-3.582 -8,-8 0,-4.418 3.582,-8 8,-8 4.418,0 8,3.582 8,8 0,4.418 -3.582,8 -8,8 z"
         inkscape:connector-curvature="0"
         style="fill:none;stroke:#000000;stroke-width:2;stroke-linecap:round;stroke-miterlimit:10" />
    </g>
  </g>
</svg>
