<?xml version="1.0" encoding="UTF-8" standalone="no"?>
<!-- Created with Inkscape (http://www.inkscape.org/) -->

<svg
   xmlns:dc="http://purl.org/dc/elements/1.1/"
   xmlns:cc="http://creativecommons.org/ns#"
   xmlns:rdf="http://www.w3.org/1999/02/22-rdf-syntax-ns#"
   xmlns:svg="http://www.w3.org/2000/svg"
   xmlns="http://www.w3.org/2000/svg"
   xmlns:xlink="http://www.w3.org/1999/xlink"
   xmlns:sodipodi="http://sodipodi.sourceforge.net/DTD/sodipodi-0.dtd"
   xmlns:inkscape="http://www.inkscape.org/namespaces/inkscape"
   width="64"
   height="64"
   id="svg4524"
   version="1.1"
   inkscape:version="0.48.4 r9939"
   sodipodi:docname="SoundButton.svg">
  <defs
     id="defs4526">
    <linearGradient
       inkscape:collect="always"
       xlink:href="#gradient6"
       id="linearGradient3671"
       gradientUnits="userSpaceOnUse"
       gradientTransform="matrix(0,-0.02929688,0.02929688,0,44,424)"
       spreadMethod="pad"
       x1="-819.20001"
       x2="819.20001" />
    <linearGradient
       gradientUnits="userSpaceOnUse"
       x1="-819.20001"
       x2="819.20001"
       spreadMethod="pad"
       gradientTransform="matrix(0,-0.02929688,0.02929688,0,44,424)"
       id="gradient6">
      <stop
         offset="0"
         stop-color="#383838"
         id="stop37" />
      <stop
         offset="1"
         stop-color="#585858"
         id="stop39" />
    </linearGradient>
  </defs>
  <sodipodi:namedview
     id="base"
     pagecolor="#ffffff"
     bordercolor="#666666"
     borderopacity="1.0"
     inkscape:pageopacity="0.0"
     inkscape:pageshadow="2"
     inkscape:zoom="0.35"
     inkscape:cx="375"
     inkscape:cy="519.99997"
     inkscape:document-units="px"
     inkscape:current-layer="layer1"
     showgrid="false"
     inkscape:showpageshadow="false"
     fit-margin-top="0"
     fit-margin-left="0"
     fit-margin-right="0"
     fit-margin-bottom="0"
     inkscape:window-width="1600"
     inkscape:window-height="838"
     inkscape:window-x="-8"
     inkscape:window-y="-8"
     inkscape:window-maximized="1" />
  <metadata
     id="metadata4529">
    <rdf:RDF>
      <cc:Work
         rdf:about="">
        <dc:format>image/svg+xml</dc:format>
        <dc:type
           rdf:resource="http://purl.org/dc/dcmitype/StillImage" />
        <dc:title />
      </cc:Work>
    </rdf:RDF>
  </metadata>
  <g
     inkscape:label="Layer 1"
     inkscape:groupmode="layer"
     id="layer1"
     transform="translate(9.9999999e-7,-988.36217)">
    <g
       transform="matrix(1.3333333,0,0,1.3333333,-26.666667,455.02885)"
       id="g4068">
      <path
         d="M 65,405.2 Q 65,403 62.85,403 l -37.65,0 q -2.2,0 -2.2,2.2 l 0,37.85 q 0.1,1.95 2.2,1.95 l 37.65,0 q 2.05,0 2.15,-1.95 l 0,-37.85 m 3,0 0,37.85 Q 67.9,448 62.85,448 l -37.65,0 q -5.1,0 -5.2,-4.95 l 0,-37.85 q 0,-5.2 5.2,-5.2 l 37.65,0 q 5.15,0 5.15,5.2"
         id="path297"
         style="fill:url(#linearGradient3671);stroke:none"
         inkscape:connector-curvature="0" />
      <path
         d="m 65,405.2 0,37.85 Q 64.9,445 62.85,445 l -37.65,0 q -2.1,0 -2.2,-1.95 l 0,-37.85 q 0,-2.2 2.2,-2.2 l 37.65,0 q 2.15,0 2.15,2.2"
         id="path299"
         inkscape:connector-curvature="0"
         style="fill:#383838;stroke:none" />
      <path
         inkscape:connector-curvature="0"
         style="fill:#ffffff;stroke:none"
         d="m 46.35,413 1.4,0 0,8.95 0.3,0.25 q 0.95,0.95 0.95,2.3 0,1.3 -0.95,2.2 l -0.3,0.35 0,8.95 -1.4,0 -9.55,-8.8 q -0.7,0.5 -1.65,0.5 -1.3,0 -2.25,-1 -0.9,-0.9 -0.9,-2.2 0,-1.35 0.9,-2.3 0.95,-0.9 2.25,-0.9 0.95,0 1.7,0.45 l 9.5,-8.75"
         id="path3820" />
      <path
         inkscape:connector-curvature="0"
         style="fill:#ffffff;stroke:none"
         d="m 51.2,418 q 1.4,0.45 2.65,1.7 2.2,2.15 2.2,5.3 0,3.1 -2.2,5.25 -1.25,1.2 -2.65,1.75 l -1.15,-3.15 q 0.85,-0.2 1.5,-0.85 1.25,-1.3 1.25,-3 0,-1.75 -1.25,-3 -0.65,-0.7 -1.5,-0.85 L 51.2,418"
         id="path3818" />
    </g>
  </g>
</svg>
