<?xml version="1.0" encoding="UTF-8" standalone="no"?>
<!-- Created with Inkscape (http://www.inkscape.org/) -->

<svg
   xmlns:dc="http://purl.org/dc/elements/1.1/"
   xmlns:cc="http://creativecommons.org/ns#"
   xmlns:rdf="http://www.w3.org/1999/02/22-rdf-syntax-ns#"
   xmlns:svg="http://www.w3.org/2000/svg"
   xmlns="http://www.w3.org/2000/svg"
   xmlns:xlink="http://www.w3.org/1999/xlink"
   xmlns:sodipodi="http://sodipodi.sourceforge.net/DTD/sodipodi-0.dtd"
   xmlns:inkscape="http://www.inkscape.org/namespaces/inkscape"
   width="64"
   height="64"
   id="svg4008"
   version="1.1"
   inkscape:version="0.48.4 r9939"
   sodipodi:docname="C:\Temp\ink_ext_XXXXXX.svgF5B0EX">
  <sodipodi:namedview
     id="base"
     pagecolor="#ffffff"
     bordercolor="#666666"
     borderopacity="1.0"
     inkscape:pageopacity="0.0"
     inkscape:pageshadow="2"
     inkscape:zoom="1.4385201"
     inkscape:cx="12.296993"
     inkscape:cy="11.646467"
     inkscape:document-units="px"
     inkscape:current-layer="layer1"
     showgrid="false"
     inkscape:snap-bbox="true"
     inkscape:bbox-nodes="true"
     fit-margin-top="0"
     fit-margin-left="0"
     fit-margin-right="0"
     fit-margin-bottom="0"
     inkscape:showpageshadow="false"
     inkscape:object-nodes="false"
     inkscape:window-width="1600"
     inkscape:window-height="838"
     inkscape:window-x="-8"
     inkscape:window-y="-8"
     inkscape:window-maximized="1">
    <inkscape:grid
       originy="0px"
       originx="0px"
       snapvisiblegridlinesonly="true"
       enabled="true"
       visible="true"
       empspacing="4"
       id="grid4034"
       type="xygrid" />
  </sodipodi:namedview>
  <defs
     id="defs4010">
    <linearGradient
       id="linearGradient5206">
      <stop
         id="stop5208"
         offset="0"
         style="stop-color:#212121;stop-opacity:1;" />
      <stop
         id="stop5210"
         offset="1"
         style="stop-color:#434343;stop-opacity:1;" />
    </linearGradient>
    <linearGradient
       y2="31.99996"
       x2="60"
       y1="31.999962"
       x1="4"
       gradientTransform="matrix(0.74017112,0,0,0.69400893,0.31759118,1006.1539)"
       gradientUnits="userSpaceOnUse"
       id="linearGradient8474"
       xlink:href="#linearGradient4374"
       inkscape:collect="always" />
    <linearGradient
       id="linearGradient4374">
      <stop
         id="stop4376"
         offset="0"
         style="stop-color:#757575;stop-opacity:1;" />
      <stop
         id="stop4378"
         offset="1"
         style="stop-color:#3c3c3c;stop-opacity:1;" />
    </linearGradient>
    <linearGradient
       y2="1020.3622"
       x2="60"
       y1="1020.3622"
       x1="4"
       gradientTransform="matrix(0.74017112,0,0,0.69400893,0.31759118,320.22167)"
       gradientUnits="userSpaceOnUse"
       id="linearGradient8476"
       xlink:href="#linearGradient7328"
       inkscape:collect="always" />
    <linearGradient
       id="linearGradient7328">
      <stop
         id="stop7330"
         offset="0"
         style="stop-color:#ababab;stop-opacity:1;" />
      <stop
         id="stop7332"
         offset="1"
         style="stop-color:#636363;stop-opacity:1;" />
    </linearGradient>
    <linearGradient
       gradientUnits="userSpaceOnUse"
       y2="0"
       x2="0"
       y1="64"
       x1="64"
       id="linearGradient5222"
       xlink:href="#linearGradient5206"
       inkscape:collect="always" />
    <linearGradient
       gradientTransform="matrix(0.96969694,0,0,0.96969698,0.9696896,989.33181)"
       inkscape:collect="always"
       xlink:href="#linearGradient5206-1"
       id="linearGradient5242"
       gradientUnits="userSpaceOnUse"
       x1="64"
       y1="64"
       x2="0"
       y2="0" />
    <linearGradient
       id="linearGradient5206-1">
      <stop
         id="stop5208-7"
         offset="0"
         style="stop-color:#212121;stop-opacity:1;" />
      <stop
         id="stop5210-4"
         offset="1"
         style="stop-color:#434343;stop-opacity:1;" />
    </linearGradient>
    <linearGradient
       inkscape:collect="always"
       xlink:href="#linearGradient5206-1"
       id="linearGradient3785"
       gradientUnits="userSpaceOnUse"
       gradientTransform="matrix(0.96969694,0,0,0.96969698,3.96969,989.33183)"
       x1="64"
       y1="64"
       x2="0"
       y2="0" />
    <linearGradient
       inkscape:collect="always"
       xlink:href="#linearGradient5206-1-85"
       id="linearGradient3785-762"
       gradientUnits="userSpaceOnUse"
       gradientTransform="matrix(0.96969694,0,0,0.96969698,3.96969,989.33183)"
       x1="64"
       y1="64"
       x2="0"
       y2="0" />
    <linearGradient
       id="linearGradient5206-1-85">
      <stop
         id="stop5655"
         offset="0"
         style="stop-color:#212121;stop-opacity:1;" />
      <stop
         id="stop5657"
         offset="1"
         style="stop-color:#434343;stop-opacity:1;" />
    </linearGradient>
  </defs>
  <metadata
     id="metadata4013">
    <rdf:RDF>
      <cc:Work
         rdf:about="">
        <dc:format>image/svg+xml</dc:format>
        <dc:type
           rdf:resource="http://purl.org/dc/dcmitype/StillImage" />
        <dc:title></dc:title>
      </cc:Work>
    </rdf:RDF>
  </metadata>
  <g
     transform="translate(-3.0000003,-988.3622)"
     id="layer1"
     inkscape:groupmode="layer"
     inkscape:label="Layer 1">
    <rect
       ry="9.696969"
       rx="9.696969"
       y="989.33185"
       x="3.9696972"
       height="62.060608"
       width="62.060608"
       id="rect2997"
       style="fill:url(#linearGradient3785-762);fill-opacity:1;fill-rule:nonzero;stroke:#606060;stroke-width:1.939394;stroke-miterlimit:4;stroke-opacity:1;stroke-dasharray:none" />
    <path
       inkscape:export-filename="C:\Users\Jason\Pictures\Sean's pictures\LoneArcher\Animations\Entity\Arrow.png"
       inkscape:export-ydpi="89.999969"
       inkscape:export-xdpi="89.999969"
       sodipodi:nodetypes="ccccccccccccccccc"
       inkscape:connector-curvature="0"
       id="path3874-2"
       d="m 35.053474,992.62391 -3.05426,7.47659 1.971275,-1.1218 -3.9e-4,32.858 c -0.274074,0.4648 -0.641639,0.9432 -0.99827,1.2821 -0.63137,0.6001 -1.470659,0.8681 -2.371827,0.9997 l 0.08646,7.2437 c 0.631643,-0.052 1.235371,-0.2449 1.994039,-0.715 0.609832,-0.3362 1.387046,-1.2342 2.31173,-2.7762 0.92223,1.5553 1.719771,2.4313 2.329102,2.7762 0.757911,0.4809 1.357848,0.6546 1.989398,0.715 l 0.08927,-7.244 c -0.900871,-0.1446 -1.747601,-0.3903 -2.378032,-0.9994 -0.356093,-0.344 -0.634097,-0.8134 -0.90742,-1.2821 l 7.57e-4,-32.8578 1.969485,1.1216 z"
       style="fill:#1e1e1e;fill-opacity:1;stroke:none" />
    <path
       inkscape:export-filename="C:\Users\Jason\Pictures\Sean's pictures\LoneArcher\Animations\Entity\Arrow.png"
       inkscape:export-ydpi="89.999969"
       inkscape:export-xdpi="89.999969"
       sodipodi:nodetypes="ccccccccccccccccc"
       inkscape:connector-curvature="0"
       id="path3874-2-9"
       d="m 9.8608503,997.1565 -0.409243,8.066 1.4892437,-1.7108 10.86832,31.0085 c -0.104893,0.5293 -0.293529,1.1023 -0.517978,1.5401 -0.397332,0.7752 -1.100734,1.3057 -1.907637,1.7279 l 2.477639,6.8075 c 0.578887,-0.2581 1.084829,-0.6399 1.645284,-1.3344 0.464296,-0.519 0.900726,-1.6235 1.263301,-3.3846 1.384779,1.1627 2.427181,1.7256 3.116295,1.8496 0.874323,0.203 1.497899,0.169 2.113925,0.017 l -2.31191,-6.8657 c -0.898018,0.1611 -1.778355,0.2094 -2.574751,-0.1566 -0.44984,-0.2068 -0.867458,-0.5578 -1.28043,-0.9097 l -10.867911,-31.0086 2.229622,0.4071 z"
       style="fill:#1e1e1e;fill-opacity:1;stroke:none" />
    <path
       inkscape:export-filename="C:\Users\Jason\Pictures\Sean's pictures\LoneArcher\Animations\Entity\Arrow.png"
       inkscape:export-ydpi="89.999969"
       inkscape:export-xdpi="89.999969"
       sodipodi:nodetypes="ccccccccccccccccc"
       inkscape:connector-curvature="0"
       id="path3874-2-9-8"
       d="m 60.139149,997.1565 0.409243,8.066 -1.489244,-1.7108 -10.868319,31.0085 c 0.104893,0.5293 0.293529,1.1023 0.517978,1.5401 0.397332,0.7752 1.100734,1.3057 1.907636,1.7279 l -2.477638,6.8075 c -0.578887,-0.2581 -1.084829,-0.6399 -1.645284,-1.3344 -0.464296,-0.519 -0.900726,-1.6235 -1.263301,-3.3846 -1.384779,1.1627 -2.427181,1.7256 -3.116295,1.8496 -0.874323,0.203 -1.497899,0.169 -2.113925,0.017 l 2.31191,-6.8657 c 0.898018,0.1611 1.778355,0.2094 2.574751,-0.1566 0.44984,-0.2068 0.867458,-0.5578 1.28043,-0.9097 l 10.867911,-31.0086 -2.229623,0.4071 z"
       style="fill:#1e1e1e;fill-opacity:1;stroke:none" />
  </g>
</svg>
