<?xml version="1.0" encoding="UTF-8" standalone="no"?>
<!-- Created with Inkscape (http://www.inkscape.org/) -->

<svg
   xmlns:dc="http://purl.org/dc/elements/1.1/"
   xmlns:cc="http://creativecommons.org/ns#"
   xmlns:rdf="http://www.w3.org/1999/02/22-rdf-syntax-ns#"
   xmlns:svg="http://www.w3.org/2000/svg"
   xmlns="http://www.w3.org/2000/svg"
   xmlns:xlink="http://www.w3.org/1999/xlink"
   xmlns:sodipodi="http://sodipodi.sourceforge.net/DTD/sodipodi-0.dtd"
   xmlns:inkscape="http://www.inkscape.org/namespaces/inkscape"
   width="32"
   height="32"
   id="svg4765"
   version="1.1"
   inkscape:version="0.48.4 r9939"
   sodipodi:docname="UncheckedRadio.svg">
  <defs
     id="defs4767">
    <linearGradient
       inkscape:collect="always"
       xlink:href="#gradient23"
       id="linearGradient3603"
       gradientUnits="userSpaceOnUse"
       gradientTransform="matrix(0,-0.04882812,0.04882812,0,430,470)"
       spreadMethod="pad"
       x1="-819.20001"
       x2="819.20001" />
    <linearGradient
       gradientUnits="userSpaceOnUse"
       x1="-819.20001"
       x2="819.20001"
       spreadMethod="pad"
       gradientTransform="matrix(0,-0.04882812,0.04882812,0,430,470)"
       id="gradient23">
      <stop
         offset="0"
         stop-color="#383838"
         id="stop122" />
      <stop
         offset="1"
         stop-color="#585858"
         id="stop124" />
    </linearGradient>
  </defs>
  <sodipodi:namedview
     id="base"
     pagecolor="#ffffff"
     bordercolor="#666666"
     borderopacity="1.0"
     inkscape:pageopacity="0.0"
     inkscape:pageshadow="2"
     inkscape:zoom="0.98994949"
     inkscape:cx="375"
     inkscape:cy="203.68375"
     inkscape:document-units="px"
     inkscape:current-layer="layer1"
     showgrid="false"
     fit-margin-top="0"
     fit-margin-left="0"
     fit-margin-right="0"
     fit-margin-bottom="0"
     showborder="true"
     inkscape:showpageshadow="false"
     inkscape:window-width="1600"
     inkscape:window-height="838"
     inkscape:window-x="-8"
     inkscape:window-y="-8"
     inkscape:window-maximized="1" />
  <metadata
     id="metadata4770">
    <rdf:RDF>
      <cc:Work
         rdf:about="">
        <dc:format>image/svg+xml</dc:format>
        <dc:type
           rdf:resource="http://purl.org/dc/dcmitype/StillImage" />
        <dc:title />
      </cc:Work>
    </rdf:RDF>
  </metadata>
  <g
     inkscape:label="Layer 1"
     inkscape:groupmode="layer"
     id="layer1"
     transform="translate(0,-1020.3622)">
    <g
       transform="matrix(0.4,0,0,0.4,-156,848.36218)"
       id="g4647">
      <path
         d="m 454.2,494.2 q 10.1,-9.95 10.1,-24.2 0,-14.15 -10.1,-24.25 -9.95,-10.05 -24.2,-10.05 -14.25,0 -24.25,10.05 -10.05,10.1 -10.05,24.25 0,14.25 10.05,24.2 10,10.1 24.25,10.1 14.25,0 24.2,-10.1 m 4.05,-52.5 Q 470,453.45 470,470 470,486.55 458.25,498.25 446.55,510 430,510 413.35,510 401.65,498.25 390,486.55 390,470 390,453.45 401.65,441.7 413.35,430 430,430 q 16.55,0 28.25,11.7"
         id="path365"
         style="fill:url(#linearGradient3603);stroke:none"
         inkscape:connector-curvature="0" />
      <path
         d="m 454.2,494.2 q -9.95,10.1 -24.2,10.1 -14.25,0 -24.25,-10.1 -10.05,-9.95 -10.05,-24.2 0,-14.15 10.05,-24.25 10,-10.05 24.25,-10.05 14.25,0 24.2,10.05 10.1,10.1 10.1,24.25 0,14.25 -10.1,24.2"
         id="path367"
         inkscape:connector-curvature="0"
         style="fill:#383838;stroke:none" />
    </g>
  </g>
</svg>
