<?xml version="1.0" encoding="UTF-8" standalone="no"?>
<!-- Created with Inkscape (http://www.inkscape.org/) -->

<svg
   xmlns:dc="http://purl.org/dc/elements/1.1/"
   xmlns:cc="http://creativecommons.org/ns#"
   xmlns:rdf="http://www.w3.org/1999/02/22-rdf-syntax-ns#"
   xmlns:svg="http://www.w3.org/2000/svg"
   xmlns="http://www.w3.org/2000/svg"
   xmlns:sodipodi="http://sodipodi.sourceforge.net/DTD/sodipodi-0.dtd"
   xmlns:inkscape="http://www.inkscape.org/namespaces/inkscape"
   width="700"
   height="290"
   id="svg3056"
   version="1.1"
   inkscape:version="0.48.4 r9939"
   sodipodi:docname="logo.svg"
   inkscape:export-filename="C:\Users\Jason\Pictures\Sean's pictures\LoneArcher\Art\logo.png"
   inkscape:export-xdpi="89.999969"
   inkscape:export-ydpi="89.999969">
  <defs
     id="defs3058" />
  <sodipodi:namedview
     id="base"
     pagecolor="#ffffff"
     bordercolor="#666666"
     borderopacity="1.0"
     inkscape:pageopacity="0.0"
     inkscape:pageshadow="2"
     inkscape:zoom="0.7"
     inkscape:cx="375"
     inkscape:cy="120"
     inkscape:document-units="px"
     inkscape:current-layer="layer1"
     showgrid="false"
     inkscape:window-width="1600"
     inkscape:window-height="838"
     inkscape:window-x="-8"
     inkscape:window-y="-8"
     inkscape:window-maximized="1" />
  <metadata
     id="metadata3061">
    <rdf:RDF>
      <cc:Work
         rdf:about="">
        <dc:format>image/svg+xml</dc:format>
        <dc:type
           rdf:resource="http://purl.org/dc/dcmitype/StillImage" />
        <dc:title></dc:title>
      </cc:Work>
    </rdf:RDF>
  </metadata>
  <g
     inkscape:label="Layer 1"
     inkscape:groupmode="layer"
     id="layer1"
     transform="translate(0,-762.36218)">
    <g
       id="g3919"
       transform="matrix(0.99464215,0,0,1.0019434,-215.26898,330.19301)">
      <path
         transform="translate(0,412.36218)"
         id="path3874"
         d="m 581.34375,18.96875 -32.15625,24.75 11.4375,0.15625 -26.15625,44.84375 C 522.18785,64.5826 481.09347,71.17891 465.59375,74.5 433.67422,81.33933 397.49544,94.20814 364.40625,97.9375 355.30829,96.70353 348.21419,93.71961 341.6875,90.25 l -5,-8.78125 c -1.03546,-3.70135 0.26796,-5.73924 1.25,-8 l 3.90625,-2.25 4.0625,7 c 1.33662,2.3022 3.13647,1.36203 4.53125,0.59375 l 5.53125,-3.0625 c 2.09877,-1.15596 2.50038,-3.64731 1.65625,-5.09375 l -3.15625,-5.4375 c -3.16887,-5.43023 -16.27503,-8.57599 -24.5,-3.96875 l -7.09375,3.96875 c -6.68744,3.74598 -4.28334,13.92746 -2.65625,16.90625 L 326.75,94.09375 c 5.23665,7.64852 16.50087,11.44911 25.4375,14.59375 l 113.78125,98.03125 -27.25,46.5 c -2.37753,1.33679 -4.7654,2.66881 -7.1875,3.25 -4.28811,1.02894 -8.55386,1.5e-4 -12.84375,-1.6875 l -17.96875,31.75 c 2.90396,1.3609 5.91853,2.17488 10.4375,2.03125 3.52727,0.0663 9.20095,-1.76031 17.15625,-6.15625 0.12246,9.08825 1.35126,14.90633 3.15625,17.9375 2.11394,3.99663 4.31672,6.21411 6.9375,8.0625 l 18.6875,-31.3125 c -3.59122,-2.89041 -6.61323,-6.10908 -7.84375,-10.34375 -0.69505,-2.39192 -0.7334,-5.11623 -0.75,-7.84375 l 26.90625,-46.71875 141.53125,50.28125 c 7.15884,6.20508 16.043,14.11518 25.28125,14.875 l 13.625,-0.25 c 3.39362,-0.0623 13.43396,-3.0226 13.375,-10.6875 l -0.0625,-8.125 c -0.0725,-9.42718 -9.30684,-19.24994 -15.59375,-19.3125 l -6.28125,-0.0625 c -1.67467,-0.0167 -3.66058,1.57296 -3.625,3.96875 l 0.0937,6.3125 c 0.0236,1.5922 0.088,3.63569 2.75,3.65625 l 8.09375,0.0625 0,4.5 c -1.47733,1.97305 -2.61555,4.12832 -6.34375,5.0625 l -10.09375,0 c -6.24726,-3.95066 -12.35846,-8.64573 -17.9375,-15.9375 -13.15282,-30.59095 -19.90941,-68.38442 -29.78125,-99.5 C 585.64386,131.92192 571.01894,92.96093 543.96875,94.25 l 26,-44.9375 5.8125,9.84375 5.5625,-40.1875 z M 484.125,94.5 c 14.22733,0.09952 27.95307,3.662695 38.65625,14.5625 L 471.21875,198.09375 371.53125,111 c 14.95259,-0.72502 27.2578,-0.53098 75.5,-11.375 11.59156,-2.605584 24.54023,-5.212816 37.09375,-5.125 z m 47.96875,19.96875 c 27.80354,7.33689 38.29672,36.89035 45.71875,61.125 14.47936,47.27844 20.75354,57.87079 27.53125,71.21875 L 480.3125,203.375 532.09375,114.46875 z"
         style="fill:#09432a;fill-opacity:1;stroke:none"
         inkscape:connector-curvature="0" />
      <g
         id="g3809"
         style="fill:#750000;fill-opacity:1">
        <path
           style="fill:#750000;fill-opacity:1;stroke:none"
           d="M 216.42857,94.285714 225,208.57143 272.85714,206.42857 274.28571,185.71429 247.85714,185 255.71429,94.285714 z"
           id="path3000"
           inkscape:connector-curvature="0"
           transform="translate(0,412.36218)" />
        <path
           style="fill:#750000;fill-opacity:1;stroke:none"
           d="m 311.4375,95 c -16.95856,0.951462 -34.98248,11.61271 -35.375,57.84375 -0.12102,14.25308 0.15087,48.83313 35.375,55 13.33994,2.33549 36.28049,-19.82779 36.40625,-60.6875 C 347.89313,131.11282 341.17924,93.331337 311.4375,95 z m 0,31.4375 c 4.47721,-0.0423 6.59099,4.50631 7.125,9.625 0.82376,7.89599 2.15074,16.66743 -3.5625,20.375 -2.63278,1.70852 -6.41028,1.78467 -10,-0.375 -2.55938,-1.53979 -3.84314,-4.11654 -4.28125,-11.0625 -0.36559,-5.79627 0.34201,-6.47634 1.0625,-9.28125 1.10481,-4.30109 3.47448,-9.22284 9.65625,-9.28125 z"
           id="path3002"
           inkscape:connector-curvature="0"
           sodipodi:nodetypes="ssssssssssss"
           transform="translate(0,412.36218)" />
        <path
           style="fill:#750000;fill-opacity:1;stroke:none"
           d="M 352.5,205.71429 351.07143,94.999999 387.5,138.21428 386.42857,98.928571 404.28571,98.571428 403.92857,207.14286 367.5,177.85714 l -0.35714,27.85715 z"
           id="path3004"
           inkscape:connector-curvature="0"
           transform="translate(0,412.36218)" />
        <path
           inkscape:connector-curvature="0"
           id="path3008"
           style="fill:#750000;fill-opacity:1;stroke:none"
           d="m 441.42857,175.35714 2.85714,-17.85714 11.42858,6.78571 -3.57143,16.78572 z m -27.85714,31.42857 -4.64286,-111.785711 59.64286,0 -2.5,55.714281 -25,2.14286 -2.85714,34.64286 26.42857,-0.35714 -1.78572,20.35714 z"
           transform="translate(0,412.36218)" />
        <path
           style="fill:#750000;fill-opacity:1;stroke:none"
           d="m 510.35714,207.14286 33.21429,-111.428575 32.5,110.000005 -34.28571,0.71428 -5.35715,-25.35714 -7.14285,26.42857 z"
           id="path3010"
           inkscape:connector-curvature="0"
           transform="translate(0,412.36218)" />
        <path
           style="fill:#750000;fill-opacity:1;stroke:none"
           d="m 604.15625,95.15625 c -9.03791,0.05265 -18.02842,0.997937 -27,4.125 l 1.0625,107.875 25.71875,-0.71875 2.125,-39.28125 3.9375,39.625 31.78125,-4.28125 -8.5625,-33.21875 c 7.25077,-9.81224 13.02657,-23.18342 6.78125,-47.84375 -3.09461,-12.21941 -10.60535,-22.738437 -26.78125,-26.09375 -2.95593,-0.613139 -6.04986,-0.20505 -9.0625,-0.1875 z m -4.34375,23.0625 10.71875,0.1875 c 4.47013,2.25752 7.84462,5.90775 7.6875,11.0625 -0.18603,6.10332 -3.14281,10.92713 -8.40625,12.6875 l -10,-0.5625 z"
           id="path3012"
           inkscape:connector-curvature="0"
           sodipodi:nodetypes="scccccccsssccsccc"
           transform="translate(0,412.36218)" />
        <path
           style="fill:#750000;fill-opacity:1;stroke:none"
           d="M 711.78572,199.64286 711.07143,180 c -21.11776,15.83421 -25.88621,0.60012 -27.42264,-11.50323 -1.74492,-13.74577 10.98061,-26.27668 27.77978,-17.0682 l 1.78572,-50 c -5.61262,-4.864293 -49.39732,-21.410521 -66.07143,32.5 -3.5887,11.60295 -1.75096,23.12896 1.07143,33.21429 13.72912,50.27334 43.95344,44.5822 63.57143,32.5 z"
           id="path3014"
           inkscape:connector-curvature="0"
           sodipodi:nodetypes="ccsccscc"
           transform="translate(0,412.36218)" />
        <path
           inkscape:connector-curvature="0"
           id="path3018"
           style="fill:#750000;fill-opacity:1;stroke:none"
           d="m 746.78572,175.35714 10.71428,-8.92857 -3.21428,-69.285714 30.71428,0 -3.92857,110.714284 -22.14286,-0.35714 -1.07143,-20.71429 -7.14285,6.07143 z M 720,207.14286 716.78572,94.999999 l 30.35714,0 -2.5,113.214291 z"
           transform="translate(0,412.36218)" />
        <path
           inkscape:connector-curvature="0"
           id="path3008-4"
           style="fill:#750000;fill-opacity:1;stroke:none"
           d="m 823.27556,587.71932 2.85714,-17.85714 11.42858,6.78571 -3.57143,16.78572 z m -27.85714,31.42857 -4.64286,-111.78571 59.64286,0 -2.5,55.71428 -25,2.14286 -2.85714,34.64286 26.42857,-0.35714 -1.78572,20.35714 z" />
        <path
           style="fill:#750000;fill-opacity:1;stroke:none"
           d="m 881.69566,507.51843 c -9.03791,0.0526 -18.02842,0.99794 -27,4.125 l 1.0625,107.875 25.71875,-0.71875 2.125,-39.28125 3.9375,39.625 31.78125,-4.28125 -8.5625,-33.21875 c 7.25077,-9.81224 13.02657,-23.18342 6.78125,-47.84375 -3.09461,-12.21941 -10.60535,-22.73844 -26.78125,-26.09375 -2.95593,-0.61314 -6.04986,-0.20505 -9.0625,-0.1875 z m -4.34375,23.0625 10.71875,0.1875 c 4.47013,2.25752 7.84462,5.90775 7.6875,11.0625 -0.18603,6.10332 -3.14281,10.92713 -8.40625,12.6875 l -10,-0.5625 z"
           id="path3012-0"
           inkscape:connector-curvature="0"
           sodipodi:nodetypes="scccccccsssccsccc" />
      </g>
    </g>
  </g>
</svg>
