<?xml version="1.0" encoding="UTF-8" standalone="no"?>
<!-- Created with Inkscape (http://www.inkscape.org/) -->

<svg
   xmlns:dc="http://purl.org/dc/elements/1.1/"
   xmlns:cc="http://creativecommons.org/ns#"
   xmlns:rdf="http://www.w3.org/1999/02/22-rdf-syntax-ns#"
   xmlns:svg="http://www.w3.org/2000/svg"
   xmlns="http://www.w3.org/2000/svg"
   xmlns:xlink="http://www.w3.org/1999/xlink"
   xmlns:sodipodi="http://sodipodi.sourceforge.net/DTD/sodipodi-0.dtd"
   xmlns:inkscape="http://www.inkscape.org/namespaces/inkscape"
   width="64"
   height="64"
   id="svg5244"
   version="1.1"
   inkscape:version="0.48.4 r9939"
   sodipodi:docname="ReviveButton.svg">
  <defs
     id="defs5246">
    <inkscape:perspective
       sodipodi:type="inkscape:persp3d"
       inkscape:vp_x="0 : 32 : 1"
       inkscape:vp_y="0 : 1000 : 0"
       inkscape:vp_z="64 : 32 : 1"
       inkscape:persp3d-origin="32 : 21.333333 : 1"
       id="perspective5309" />
    <linearGradient
       inkscape:collect="always"
       xlink:href="#linearGradient5206"
       id="linearGradient5222"
       x1="64"
       y1="64"
       x2="0"
       y2="0"
       gradientUnits="userSpaceOnUse" />
    <linearGradient
       id="linearGradient5206">
      <stop
         style="stop-color:#212121;stop-opacity:1;"
         offset="0"
         id="stop5208" />
      <stop
         style="stop-color:#434343;stop-opacity:1;"
         offset="1"
         id="stop5210" />
    </linearGradient>
    <linearGradient
       y2="0"
       x2="0"
       y1="64"
       x1="64"
       gradientUnits="userSpaceOnUse"
       id="linearGradient5242"
       xlink:href="#linearGradient5206"
       inkscape:collect="always"
       gradientTransform="matrix(0.96969694,0,0,0.96969698,0.9696896,989.33181)" />
  </defs>
  <sodipodi:namedview
     id="base"
     pagecolor="#ffffff"
     bordercolor="#666666"
     borderopacity="1.0"
     inkscape:pageopacity="0.0"
     inkscape:pageshadow="2"
     inkscape:zoom="3.596301"
     inkscape:cx="-4.8551161"
     inkscape:cy="39.86481"
     inkscape:document-units="px"
     inkscape:current-layer="layer1"
     showgrid="false"
     inkscape:snap-bbox="true"
     inkscape:bbox-nodes="true"
     inkscape:snap-nodes="false"
     inkscape:window-width="1600"
     inkscape:window-height="838"
     inkscape:window-x="-8"
     inkscape:window-y="-8"
     inkscape:window-maximized="1"
     inkscape:showpageshadow="false"
     inkscape:object-nodes="true">
    <inkscape:grid
       type="xygrid"
       id="grid5275"
       empspacing="4"
       visible="true"
       enabled="true"
       snapvisiblegridlinesonly="true" />
  </sodipodi:namedview>
  <metadata
     id="metadata5249">
    <rdf:RDF>
      <cc:Work
         rdf:about="">
        <dc:format>image/svg+xml</dc:format>
        <dc:type
           rdf:resource="http://purl.org/dc/dcmitype/StillImage" />
        <dc:title />
      </cc:Work>
    </rdf:RDF>
  </metadata>
  <g
     inkscape:label="Layer 1"
     inkscape:groupmode="layer"
     id="layer1"
     transform="translate(0,-988.36217)">
    <rect
       style="fill:url(#linearGradient5242);fill-opacity:1;fill-rule:nonzero;stroke:#606060;stroke-width:1.939394;stroke-miterlimit:4;stroke-opacity:1;stroke-dasharray:none"
       id="rect2997"
       width="62.060608"
       height="62.060608"
       x="0.969697"
       y="989.33185"
       rx="9.696969"
       ry="9.696969" />
    <path
       style="fill:#222222;fill-opacity:1;stroke:#000000;stroke-width:1px;stroke-linecap:butt;stroke-linejoin:miter;stroke-opacity:1"
       d="m 12.19346,1036.4258 -0.973222,-36.56531 2.780635,-5.00514 14.459301,-1.94645 7.646746,1.25129 2.502572,4.86611 0.139031,35.7311 -21.271857,4.7271 z"
       id="path3003"
       inkscape:connector-curvature="0" />
    <path
       style="fill:#262626;fill-opacity:1;stroke:#000000;stroke-width:1px;stroke-linecap:butt;stroke-linejoin:miter;stroke-opacity:1"
       d="m 17.476666,1039.4845 -1.112254,-37.5386 2.919667,-5.70024 16.822841,-2.08547 2.502572,4.86611 0.139031,35.7311 z"
       id="path3005"
       inkscape:connector-curvature="0" />
    <path
       style="fill:#2b1100;stroke:#000000;stroke-width:0.69999999;stroke-linecap:butt;stroke-linejoin:miter;stroke-miterlimit:4;stroke-opacity:1;stroke-dasharray:none"
       d="m 36.245952,1045.1848 -0.556127,-1.5293 -1.946444,0.4171 -1.668381,-1.6684 2.224508,-0.8342 0.556127,-1.1122 1.112253,0.278 0.834191,-0.6951 1.390317,0.139 1.112254,-1.1123 1.668381,0.8342 1.946445,-0.278 1.390317,1.3903 1.251286,0.4171 0,1.2513 0.417095,0.8342 -1.807413,0.4171 -1.112254,0.9732 -1.946444,-0.6952 -0.83419,1.3903 -1.946445,-0.6951 z"
       id="path3007"
       inkscape:connector-curvature="0" />
    <path
       style="fill:#00311e;fill-opacity:1;stroke:#000000;stroke-width:0.80000001;stroke-linecap:butt;stroke-linejoin:miter;stroke-miterlimit:4;stroke-opacity:1;stroke-dasharray:none"
       d="m 36.941111,1042.1261 -0.764675,-15.641 -3.267246,-0.4866 -5.283206,-2.2245 1.112254,-2.0855 4.136194,2.3983 0.868949,-4.171 -2.224508,-7.8205 1.390317,-1.1123 2.01596,8.3072 1.042738,-0.5561 -1.390317,-8.3072 1.807413,-0.8342 0.695158,9.0371 0.973223,0.1042 0.417095,-8.7242 1.807413,0.6952 -1.286044,8.5852 0.764674,0.7646 3.023941,-4.7618 1.147012,1.0427 -3.452962,4.6984 0.185716,4.2692 -0.938464,1.1818 1.112254,15.641 z"
       id="path3009"
       inkscape:connector-curvature="0"
       sodipodi:nodetypes="cccccccccccccccccccccccccc" />
  </g>
</svg>
